<?xml version="1.0" encoding="UTF-8" standalone="no"?>
<svg width="143px" height="190px" viewBox="0 0 143 190" version="1.1" xmlns="http://www.w3.org/2000/svg" xmlns:xlink="http://www.w3.org/1999/xlink" xmlns:sketch="http://www.bohemiancoding.com/sketch/ns">
    <!-- Generator: Sketch 3.0.4 (8053) - http://www.bohemiancoding.com/sketch -->
    <title>bellhop - face</title>
    <desc>Created with Sketch.</desc>
    <defs></defs>
    <g id="Welcome" stroke="none" stroke-width="1" fill="none" fill-rule="evenodd" sketch:type="MSPage">
        <g id="Desktop-HD" sketch:type="MSArtboardGroup" transform="translate(-648.000000, -176.000000)" fill="#256B7F">
            <g id="bellhop---face" sketch:type="MSLayerGroup" transform="translate(649.328356, 176.434403)">
                <path d="M16.285222,45.4322545 C28.1485025,50.7133546 66.1392211,50.6158254 70.1088653,50.6158254 C73.6489661,50.6158254 112.048477,50.6033749 123.940809,45.4696061 L123.940809,41.593341 C118.510303,46.3867952 74.8130907,47.1234516 70.1088653,47.1234516 C65.1203527,47.1234516 21.9439881,46.4158464 16.285222,41.5995662 L16.285222,45.4322545 L16.285222,45.4322545 L16.285222,45.4322545 Z M70.1067902,3.74995356 C63.2216468,3.74995356 24.4963468,4.39738114 16.6691133,9.01652795 C19.3439023,10.6330218 29.6010643,12.0254062 31.024575,12.2080139 C41.022351,13.4634424 54.8445149,14.2395255 70.1067902,14.2395255 C77.5107057,14.2395255 115.422571,13.5962481 123.511266,8.99370198 C115.422571,4.39323097 77.5127807,3.74995356 70.1067902,3.74995356 L70.1067902,3.74995356 L70.1067902,3.74995356 Z M16.0652626,104.503796 C14.6230762,95.5062131 13.5191291,86.6621862 13.1227872,78.2477027 L13.1144869,78.0588697 C13.0418588,76.4672769 13.046009,72.6843907 13.07091,69.524031 C12.8634012,69.1567404 12.7596468,68.772849 12.7637969,68.3682068 L12.7845478,9.23856241 C12.7679471,9.15763397 12.7637969,9.07670552 12.7637969,8.99370198 C12.7637969,7.52868956 13.9071707,6.60320013 14.7247555,6.09687855 C23.3363724,0.805403097 62.0907236,0.255504667 70.1067902,0.255504667 C74.8172409,0.255504667 127.451859,0.126849185 127.451859,9.00200233 L127.451859,68.3578313 C127.451859,68.7458729 127.350179,69.1173137 127.157196,69.4680036 C127.213223,72.6055373 127.144745,75.8198493 126.978738,79.098489 L126.872909,80.8975906 C126.397714,88.4612879 125.389221,96.3466239 124.100591,104.348165 C127.549388,101.482468 131.440178,100.770712 134.824648,101.868434 C142.558502,104.383441 141.601886,116.377452 137.256651,124.88739 L137.098945,125.188278 C131.541858,135.779529 125.656907,141.031578 119.209607,140.14759 C118.670084,145.31456 117.425031,150.041612 115.800237,154.498902 C109.120527,173.927954 95.4913468,182.244909 80.7706696,184.830469 C79.3243329,185.089855 79.230954,185.535999 78.0751297,186.241529 C76.6931208,187.084015 74.67821,187.586186 70.0383123,187.590337 C65.6578006,187.590337 63.9832043,187.465831 60.6236361,185.32019 C60.3725504,185.158333 60.0073349,184.971575 59.2084258,184.830469 C44.4794483,182.244909 30.8502676,173.919654 24.1664078,154.474001 C22.5582143,150.039537 21.3131612,145.343612 20.7819386,140.207768 C14.3304887,141.023277 8.44968813,135.781604 2.88430101,125.188278 C-1.61449068,116.599487 -2.63958435,104.404192 5.1419972,101.880885 L5.29140357,101.835233 C8.70907418,100.779013 12.624766,101.553021 16.0652626,104.503796 L16.0652626,104.503796 L16.0652626,104.503796 Z M120.894579,73.0226301 C121.014934,84.9460881 120.577091,100.005005 118.555954,115.061846 C114.206569,147.570181 102.160681,182.323762 70.1607425,182.323762 C26.2643222,182.323762 18.7649526,115.879431 19.2961753,73.0288554 C18.654973,72.8420974 18.0552724,72.644964 17.4970736,72.4395303 C17.3518174,84.0538001 17.7274084,98.0066946 19.4103051,112.055043 C18.5678192,112.586266 17.4804729,112.160873 17.1526089,110.868093 L17.0550798,110.733212 C13.5606309,105.111797 9.244447,104.047277 6.25839477,104.970691 C2.15594497,106.302898 1.02917196,114.567975 5.78112443,123.642337 C11.848683,135.21303 17.0716805,138.010249 21.6244245,136.696718 L21.7738308,136.653141 L21.9232372,136.609564 C22.4295588,136.495435 22.8674024,136.605414 23.1994166,136.844049 C23.5397311,137.070234 23.8032673,137.431299 23.8800456,137.950071 L23.8924961,138.103628 L23.9049466,138.277935 C24.3012885,143.714667 25.5587921,148.686579 27.268665,153.392879 C33.5063807,171.545753 46.04614,179.188304 59.7811502,181.607857 C64.6679835,182.462793 61.1922104,184.319997 70.0383123,184.319997 C78.8034857,184.311697 75.336013,182.462793 80.2041704,181.607857 C93.9391806,179.188304 106.47894,171.545753 112.716656,153.392879 C114.434829,148.661678 115.700633,143.66694 116.084524,138.201157 C116.076224,137.188514 116.956061,136.15097 118.244691,136.568063 C122.80366,138.055901 128.055709,135.372812 134.191746,123.671388 L134.320401,123.432753 C138.945773,114.414419 137.8024,106.288372 133.83483,104.999743 C130.875754,104.043127 126.584472,105.024644 123.077572,110.517403 L123.046446,110.646058 C122.80366,112.036367 121.745365,112.56759 120.873828,112.133897 C122.544274,98.0959234 122.888739,83.9396702 122.739333,72.4146292 C122.166608,72.622138 121.544082,72.8275718 120.894579,73.0226301 L120.894579,73.0226301 L120.894579,73.0226301 Z M55.8820591,76.9113458 C47.0027558,76.6644103 35.7350257,76.0564094 26.9449512,74.6619499 C26.8640227,76.0626346 26.7706437,77.4674695 26.6523637,78.8702292 C26.5237082,80.3829687 26.3369503,82.267149 26.3286499,82.4642824 C26.0941649,84.7614053 25.8057276,87.054378 25.4654131,89.332825 C25.274505,84.1015271 25.2101773,79.0652876 25.2433787,74.3755877 C24.5752002,74.2573077 23.9256975,74.1328024 23.2969457,74.0041469 C23.0251092,111.457418 28.3788373,178.459948 70.1607425,178.459948 C111.963399,178.459948 117.304676,111.409691 117.028689,73.9688704 C116.397863,74.0975259 115.75251,74.2241063 115.082256,74.3423863 C115.121683,79.3205234 115.04698,84.6867021 114.82287,90.270765 C114.061313,85.3673311 113.550841,80.3788185 113.247878,75.4297327 L113.210527,74.6598749 C103.77095,76.1580887 91.4988767,76.7474138 82.4120645,76.9798237 C81.2417146,79.8434457 79.0877729,82.0388893 76.6619945,83.6719838 C73.974755,85.4669353 70.0901895,87.0357022 66.8924782,87.7557578 C66.5314129,87.8968639 66.1786478,87.8968639 65.8632344,87.7972596 C65.4170904,87.6540785 65.0477246,87.3116889 64.8422909,86.890446 C64.6368571,86.469203 64.5912052,85.9794822 64.8049393,85.5271129 C64.9315197,85.22415 65.1577043,84.9543885 65.4897185,84.7759309 C65.6723263,84.6348249 65.9026611,84.4459918 66.1620471,84.2177321 C67.2763696,83.2735669 68.670829,81.9123089 69.258079,80.7357337 C69.3431577,80.5593512 69.399185,80.4120199 69.4323865,80.2978901 C66.8385259,81.1964034 64.2239145,81.775353 62.1944781,82.1550942 C55.5147685,83.4084476 49.1317965,83.5703045 48.0735014,83.5163522 C45.8033547,83.3959971 45.8075049,80.3767434 48.0735014,80.2418627 C48.0735014,80.2418627 49.2293257,80.1713097 50.8852462,79.6255614 C52.312907,79.1545164 54.0995582,78.3390066 55.8571581,76.9258714 L55.8820591,76.9113458 L55.8820591,76.9113458 Z M68.5629244,77.127155 C66.8157,77.1230048 63.9666036,77.1084792 60.4576291,77.0379262 C59.6462695,77.9737911 58.7913331,78.7789254 57.9363966,79.4657796 C59.07147,79.3641003 60.3227483,79.1669669 61.5927024,78.9304068 C63.2361725,78.6212186 65.9213369,78.0609448 68.5629244,77.127155 L68.5629244,77.127155 L68.5629244,77.127155 Z M78.7806598,77.056602 C77.7036889,77.0773529 76.697271,77.0918785 75.7800819,77.1001788 C74.8213911,77.8223096 73.7423451,78.4489863 72.6031216,78.9988847 C72.9206101,79.7064899 72.9060845,80.7585597 72.2067797,82.1799953 C72.1383018,82.3190262 72.0656737,82.4290059 71.9909705,82.526535 C72.9849378,82.0617152 73.9415536,81.5429431 74.8276163,80.9515429 C76.7097215,79.6898892 77.9776005,78.3784333 78.7806598,77.056602 L78.7806598,77.056602 L78.7806598,77.056602 Z M133.774653,110.179163 C135.893318,110.706236 135.11516,113.887346 132.988194,113.364424 C131.521107,112.999208 128.802741,114.717382 126.690301,118.612323 C127.223599,119.25975 127.37508,120.386523 127.014015,121.648177 C126.449591,123.613286 124.845547,125.23808 123.436562,125.126025 C120.363357,124.89154 122.32639,120.31597 122.515223,119.873976 C124.78952,114.10108 129.228134,109.060691 133.774653,110.179163 L133.774653,110.179163 L133.774653,110.179163 Z M6.37459972,110.179163 C10.9169683,109.060691 15.3597326,114.105231 17.6340295,119.873976 C17.8207874,120.31597 19.7858961,124.89154 16.7064649,125.126025 C15.3037052,125.240155 13.703812,123.613286 13.1352378,121.648177 C12.7741724,120.388598 12.9277289,119.261825 13.4589516,118.612323 C11.3423614,114.717382 8.62814574,112.999208 7.16105823,113.364424 C5.03824278,113.887346 4.25178427,110.706236 6.37459972,110.179163 L6.37459972,110.179163 L6.37459972,110.179163 Z M31.6948286,111.268585 C33.7221899,106.790544 39.0945938,103.908246 45.2347805,103.908246 C51.3459158,103.908246 56.9320538,106.769793 58.9614903,111.268585 C59.9139559,113.364424 56.772272,114.777559 55.8239566,112.687945 C54.7822623,110.384597 51.9705175,108.33441 48.1834811,107.624729 C49.4887117,108.492116 50.3436481,109.971654 50.3436481,111.654551 C50.3436481,114.32519 48.1793309,116.493657 45.504542,116.493657 C42.8339032,116.493657 40.6695859,114.32519 40.6695859,111.654551 C40.6695859,109.890726 41.6137512,108.34686 43.0206611,107.504374 C38.9265117,108.079174 35.9487598,110.21859 34.8302871,112.687945 C33.8861219,114.777559 30.7485882,113.364424 31.6948286,111.268585 L31.6948286,111.268585 L31.6948286,111.268585 Z M94.1529147,146.159121 C92.492844,146.621866 91.7956143,144.133835 93.4598352,143.66694 C97.0061613,142.672973 100.569088,146.24005 100.930154,149.564341 C101.123137,151.274214 98.5521022,151.554351 98.3674193,149.844478 C98.1702859,148.076503 96.0744466,145.621673 94.1529147,146.159121 L94.1529147,146.159121 L94.1529147,146.159121 Z M45.8510817,146.159121 C43.9337,145.617523 41.8337105,148.076503 41.6448775,149.840328 C41.4581195,151.550201 38.8850099,151.267989 39.075918,149.560191 C39.4369834,146.233824 42.9999102,142.670898 46.5503865,143.660715 C48.2063071,144.137985 47.5090774,146.621866 45.8510817,146.159121 L45.8510817,146.159121 L45.8510817,146.159121 Z M94.1176382,152.757902 C92.8580596,153.264224 91.671109,153.666791 90.4903837,153.994655 C90.4426567,154.050683 90.3824791,154.104635 90.3285268,154.156512 C83.1113693,160.827921 81.9430945,164.608732 70.1296162,164.612883 C58.3119876,164.608732 57.1644638,160.823771 49.9493813,154.156512 C49.8892038,154.100485 49.8311013,154.042382 49.7833743,153.982205 C48.6088742,153.662641 47.4281489,153.255924 46.1810208,152.757902 C44.1536594,151.938243 45.3738114,148.896163 47.4053229,149.713748 C51.7422577,151.456822 55.0769248,151.869765 61.6923067,152.085574 C61.6923067,152.085574 65.1203527,152.23498 70.1379165,152.272332 C75.1637807,152.23498 78.6084274,152.085574 78.6084274,152.085574 C85.2238093,151.869765 88.5543262,151.456822 92.8954112,149.713748 C94.9165473,148.896163 96.1470747,151.940318 94.1176382,152.757902 L94.1176382,152.757902 L94.1176382,152.757902 Z M58.7477562,158.124081 C60.5074312,159.140874 65.2033563,159.757176 70.0964148,159.794527 C75.0413504,159.757176 79.8202791,159.138799 81.5509028,158.097105 C82.6133481,157.229718 83.6259912,156.196324 84.7859656,155.015599 C83.0055398,155.194056 81.0362809,155.295736 78.7225573,155.368364 C78.4424204,155.380814 75.0413504,155.52192 70.150367,155.555122 C65.0477246,155.52192 61.5574259,155.368364 61.5574259,155.368364 C59.2395522,155.295736 57.2702933,155.194056 55.4898674,155.011448 C56.6602173,156.202549 57.6770106,157.248394 58.7477562,158.124081 L58.7477562,158.124081 L58.7477562,158.124081 Z M58.5858993,137.750863 C58.5858993,137.750863 58.7809576,137.528829 59.1606988,137.252842 C61.0988314,135.833481 63.4561318,136.109468 65.3735135,137.551655 C66.2242998,138.194932 67.1477141,138.632776 70.0943397,138.632776 C73.0388901,138.632776 74.0183319,138.186632 74.8649679,137.551655 C76.8632781,136.053441 79.9198833,135.779529 81.6525821,137.755013 C83.12797,139.367357 80.7125671,141.587701 79.233029,139.971208 C78.386393,139.344531 77.5501323,139.639193 76.8342268,140.180792 L76.6018169,140.348874 C76.5291888,140.425652 76.4441102,140.50658 76.3465811,140.579209 C74.4105236,142.054596 72.8811834,143.567336 70.173193,143.563186 C67.4693528,143.567336 65.9088863,142.050446 63.976979,140.579209 C63.7466442,140.425652 63.5806371,140.303222 63.4104799,140.180792 C62.5596936,139.541664 61.8292625,139.367357 61.0075275,139.971208 C59.5259144,141.579401 57.1063613,139.363207 58.5858993,137.750863 L58.5858993,137.750863 L58.5858993,137.750863 Z M94.6716868,91.3622615 C103.89338,91.3622615 111.629309,95.8838792 111.747589,98.5337671 C111.957173,102.957856 111.322196,101.600748 107.734368,100.171012 C102.700204,98.1727017 98.3715695,97.5273492 94.7131886,97.6497794 C91.2000639,97.6248783 87.1059145,98.297207 82.3913136,100.171012 C78.8034857,101.598673 78.176809,102.957856 78.3780926,98.5337671 C78.504673,95.9523571 85.8899127,91.3622615 94.6716868,91.3622615 L94.6716868,91.3622615 L94.6716868,91.3622615 Z M108.273891,111.268585 C109.222207,113.364424 106.084673,114.777559 105.136358,112.687945 C104.022035,110.21859 101.040133,108.079174 96.9501339,107.504374 C98.3632691,108.34686 99.3032842,109.890726 99.3032842,111.654551 C99.3032842,114.32519 97.1348168,116.493657 94.464178,116.493657 C91.7935392,116.493657 89.6250718,114.32519 89.6250718,111.654551 C89.6250718,109.969579 90.4841584,108.492116 91.789389,107.624729 C88.0002776,108.33856 85.1843826,110.384597 84.1468384,112.687945 C83.1943728,114.779634 80.0568391,113.364424 80.9989293,111.268585 C83.0325159,106.769793 88.6248792,103.908246 94.7339395,103.908246 C100.869976,103.908246 106.25068,106.790544 108.273891,111.268585 L108.273891,111.268585 L108.273891,111.268585 Z M45.2991082,91.3622615 C54.0808824,91.3622615 61.4702722,95.9523571 61.5885523,98.5337671 C61.7919109,102.957856 61.1590089,101.600748 57.5711811,100.171012 C52.8607304,98.3013572 48.768656,97.6248783 45.2534563,97.6497794 C41.5888501,97.523199 37.2643659,98.1727017 32.2322765,100.171012 C28.6444486,101.598673 28.0136217,102.957856 28.2149053,98.5337671 C28.3373355,95.8838792 36.0753402,91.3622615 45.2991082,91.3622615 L45.2991082,91.3622615 L45.2991082,91.3622615 Z" id="Shape" sketch:type="MSShapeGroup"></path>
            </g>
        </g>
    </g>
</svg>